<!-- Generated by IcoMoon.io -->
<svg version="1.1" xmlns="http://www.w3.org/2000/svg" width="64" height="64" viewBox="0 0 64 64">
<title>google-plus</title>
<path fill="#fff" d="M20.363 28.587v6.987h11.55c-0.462 3-3.488 8.788-11.55 8.788-6.95 0-12.625-5.763-12.625-12.863s5.675-12.863 12.625-12.863c3.962 0 6.6 1.688 8.113 3.137l5.525-5.325c-3.55-3.313-8.15-5.325-13.637-5.325-11.262 0.012-20.363 9.113-20.363 20.375s9.1 20.363 20.363 20.363c11.75 0 19.55-8.263 19.55-19.9 0-1.337-0.15-2.363-0.325-3.375h-19.225z"></path>
<path fill="#fff" d="M64 28h-6v-6h-6v6h-6v6h6v6h6v-6h6z"></path>
</svg>
