<!-- Generated by IcoMoon.io -->
<svg version="1.1" xmlns="http://www.w3.org/2000/svg" width="64" height="64" viewBox="0 0 64 64">
<title>pinterest2</title>
<path fill="#fff" d="M32 0c-17.65 0-32 14.35-32 32s14.35 32 32 32 32-14.35 32-32-14.35-32-32-32zM32 59.725c-2.863 0-5.613-0.438-8.212-1.237 1.125-1.837 2.825-4.862 3.45-7.263 0.337-1.3 1.725-6.587 1.725-6.587 0.9 1.725 3.55 3.188 6.35 3.188 8.362 0 14.388-7.688 14.388-17.25 0-9.163-7.475-16.012-17.087-16.012-11.962 0-18.313 8.037-18.313 16.775 0 4.063 2.163 9.125 5.625 10.738 0.525 0.25 0.8 0.138 0.925-0.375 0.087-0.388 0.563-2.263 0.775-3.15 0.063-0.275 0.038-0.525-0.188-0.8-1.15-1.388-2.063-3.95-2.063-6.325 0-6.113 4.625-12.037 12.512-12.037 6.813 0 11.575 4.637 11.575 11.275 0 7.5-3.788 12.7-8.712 12.7-2.725 0-4.762-2.25-4.1-5.013 0.788-3.3 2.3-6.85 2.3-9.225 0-2.125-1.137-3.9-3.512-3.9-2.788 0-5.012 2.875-5.012 6.738 0 2.45 0.825 4.113 0.825 4.113s-2.75 11.613-3.25 13.775c-0.563 2.4-0.337 5.763-0.1 7.95-10.313-4.025-17.625-14.050-17.625-25.8 0-15.313 12.412-27.725 27.725-27.725s27.725 12.413 27.725 27.725c0 15.313-12.413 27.725-27.725 27.725z"></path>
</svg>
